<svg xmlns="http://www.w3.org/2000/svg" viewBox="0 0 415.26 439.27"><defs><style>.cls-1,.cls-3{fill:#fff;}.cls-2{fill:#3a309c;}.cls-3{font-size:65.84px;font-family:SamsungSharpSansRegular-Regular, Samsung Sharp Sans Regular;}.cls-4{letter-spacing:-0.01em;}</style></defs><g id="Livello_2" data-name="Livello 2"><g id="Livello_1-2" data-name="Livello 1"><path class="cls-1" d="M346,275c0,3.66-1.37,4.35-4.48,4.25a110.88,110.88,0,0,0-14.81.05c-4.71.48-6.24-.77-6.21-5.69.2-43.18.16-86.37.19-129.56,0-12.29-.09-24.58,0-36.87,0-3.62-.9-4.74-4.8-4C298,106.48,285.15,116,278.42,133.19c-1.38,3.53-1.21,7.29-1.24,11a133.51,133.51,0,0,1-8.77,45.8c-10.09,27.34-27.56,48.63-51,65.26-19.36,13.74-41.07,21.59-64.69,24.22-4,.44-5.94-.11-5.54-4.92a161.67,161.67,0,0,0,.07-18.42c-.1-3.07.56-4.64,4.05-5,23.5-2.31,44-11.68,61.36-27.53a112.38,112.38,0,0,0,31.69-49.7c4.08-12.73,4-25.84,5.44-38.85a61.7,61.7,0,0,1,4.79-18c7.34-16.67,20.44-25.86,25.66-29.35,18.37-12.33,37.22-13.25,45.22-13.15a13.21,13.21,0,0,0,1,2.31c4.24,7.34,16.06,14.2,17.83,13S345.87,216.75,346,275Z"/><path class="cls-1" d="M318.9,34.61C283.52,36.82,254.81,51.8,233.3,80c-14.54,19.06-21.91,40.67-23.08,64.8-1.37,28.41-15.54,48.85-41.13,61.62-5.34,2.66-11.26,2.8-16.5,5.59-3.16,1.69-5.69.66-5.33-4.15a173.21,173.21,0,0,0,.09-18.93c-.1-2.78,1.06-3.93,3.45-4.79,22-8,31.56-21.6,32.53-45,.45-10.86,3.46-21.35,6.47-31.84,5.1-17.78,12.67-34.16,23.79-49,18.25-24.29,42.29-40,71.17-48.78C307.05,2.75,329.86.83,353,1.78c-.43,3.24-3.47,2.38-5.23,2.88C336,8,329.49,17.23,323.78,26.85,322.23,29.46,321.39,32.53,318.9,34.61Z"/><path class="cls-1" d="M320.74,41.5a26.64,26.64,0,0,0,1.18,24.77c-8.77.42-33.34,2.76-54.3,21.17-5.13,4.5-18.21,16.4-23.57,35.46a64.6,64.6,0,0,0-2.39,16.95c-.18,16.74-4.8,32.15-11.76,47.36-7.58,16.57-19.08,29.2-33.76,39.25a104,104,0,0,1-43.37,17c-3.86.59-6.15.26-5.49-4.61.45-3.35.09-6.82.09-10.23,0-7.89,0-7.89,7.42-9.35,36.43-7.18,63.25-39.66,63.46-76.66.11-18.64,6.56-35.39,16.36-50.89A105.17,105.17,0,0,1,257.23,66c19.67-16,40.12-20.53,49-22.39A125,125,0,0,1,320.74,41.5Z"/><path class="cls-1" d="M386.93,94.37c1-11.48,11.41-8.85,15.65-13.51,3.63-4,7.92-7.9,7.28-14.13-.28-2.66,3.83-2.55,3.05-5.31,2,1.22,1,3.15,1,4.71,0,34.45-.16,68.9-.2,103.35q-.06,53,.07,105.92c0,2.82-.41,3.93-3.59,3.79a150.4,150.4,0,0,0-17.38.16c-4.68.32-5.71-1.55-5.69-5.91.16-34.8.11-69.59.12-104.39q0-34.8,0-69.6C387.23,97.75,386.93,94.37,386.93,94.37Z"/><path class="cls-1" d="M353.56,93.73l26.19-.33q0,89.79.13,179.58c0,4.94-1.06,6.85-6.25,6.29a99.83,99.83,0,0,0-15.85-.06c-3.36.17-4.44-.81-4.43-4.34q.13-80.68.06-161.37C353.41,106.91,353.51,100.32,353.56,93.73Z"/><path class="cls-1" d="M413.73,34.06c-1.91-.38-2.85-1.32-3.77-3.34C404.43,18.66,396,9.44,383,5.13a1.47,1.47,0,0,0-.51,0c-2.95-1.71-1.6-3.32.61-3.38,9.52-.27,19.06-.16,28.59-.11,2.12,0,2.2,1.69,2.19,3.31Q413.81,19.51,413.73,34.06Z"/><circle class="cls-2" cx="366.31" cy="48.94" r="48.94"/><path class="cls-1" d="M329.49,55.26c.14-1.36.25-2.71.43-4.06a43.11,43.11,0,0,1,7.84-20.43,14.27,14.27,0,0,1,9.73-6.08,16.74,16.74,0,0,1,9.56,1.67,31.55,31.55,0,0,1,3.3,1.88A8.18,8.18,0,0,0,365,29.62c.84,0,1.68,0,2.52,0a8.43,8.43,0,0,0,5-1.53,19.91,19.91,0,0,1,9.18-3.46,13.89,13.89,0,0,1,12.33,5,32.88,32.88,0,0,1,5.69,9.76,48.18,48.18,0,0,1,3.43,20.25A31.52,31.52,0,0,1,401.69,69a6,6,0,0,1-6.55,4.24A8.4,8.4,0,0,1,391,71.12a55.48,55.48,0,0,1-8.49-8.36,6.8,6.8,0,0,0-5.74-2.64c-7.14.08-14.29.05-21.43,0a5.88,5.88,0,0,0-4.78,2.18A62,62,0,0,1,342,70.84c-.67.54-1.38,1-2.1,1.5A5.91,5.91,0,0,1,331,69.11a28.77,28.77,0,0,1-1.34-7.76,9.07,9.07,0,0,0-.14-.91Zm18-14.22c-1.57,0-3,0-4.5,0a.69.69,0,0,0-.76.47,5.18,5.18,0,0,0,0,4.12.8.8,0,0,0,.87.57c1.08,0,2.16,0,3.24,0h1c0,1.49,0,2.86,0,4.22a.94.94,0,0,0,.58,1,4.22,4.22,0,0,0,3.21.27c1.3-.35,1.33-.41,1.33-1.76V46.18c1.57,0,3,0,4.49,0a.93.93,0,0,0,.69-.31,4.16,4.16,0,0,0,.24-4,1.18,1.18,0,0,0-1.29-.85c-1,.08-2,0-2.95,0h-1c0-1.54,0-3,0-4.37a.68.68,0,0,0-.54-.78,6.61,6.61,0,0,0-4-.13.76.76,0,0,0-.66.9C347.51,38.09,347.48,39.52,347.48,41Zm47.06,1.59a4,4,0,1,0-4,4A4,4,0,0,0,394.54,42.63Zm-17.89-5.9a4,4,0,1,0,4-4A4,4,0,0,0,376.65,36.73Zm4,15a4,4,0,1,0-4-3.95A4,4,0,0,0,380.63,51.69Z"/><ellipse class="cls-1" cx="205.99" cy="360.07" rx="291.32" ry="0.7"/><path class="cls-1" d="M414.16,297.1H0v-1H414.21Z"/><path class="cls-1" d="M162.76,117.08q8.66,9.14,8.65,24.92c0,.32,0,.62,0,.9a3.16,3.16,0,0,1-3.14,3.14l-36.16.41a3.18,3.18,0,0,0-2.49,5.11,15.41,15.41,0,0,0,1.53,1.78,9.66,9.66,0,0,0,6.32,2.94q8.81.66,13.35-4.38A3.17,3.17,0,0,1,154,151l12.59,3.61a3.19,3.19,0,0,1,2,4.37,25.17,25.17,0,0,1-5,7.15,32.69,32.69,0,0,1-11.08,7.33,35.09,35.09,0,0,1-13.34,2.63,17.82,17.82,0,0,1-2.51-.13,31.88,31.88,0,0,1-16-5.63,36.31,36.31,0,0,1-11.65-13.15,37.38,37.38,0,0,1-4.32-17.79,23.36,23.36,0,0,1,.13-2.88A28.12,28.12,0,0,1,110,121.71a31,31,0,0,1,12-10.14,36.92,36.92,0,0,1,16.47-3.64Q154.12,107.93,162.76,117.08Zm-29.7,14.19,10.17.06a3.17,3.17,0,0,0,2.11-5.57l-.05,0a9.82,9.82,0,0,0-5.57-2.26,12.21,12.21,0,0,0-8.55,2.08A3.18,3.18,0,0,0,133.06,131.27Z"/><path class="cls-1" d="M243.85,308c11.87-.75,20,6.72,21,19.4.88,11.08-7.28,20.1-19,21s-20.6-7-21.39-19C223.61,317,231.13,308.76,243.85,308Zm-5,20.43a52.94,52.94,0,0,0,1,7.43c.62,2.34,2.1,4.5,4.86,4.49s4.22-2.16,4.81-4.56a35.48,35.48,0,0,0-.06-16.14c-.59-2.67-2.49-4.71-5.44-4.39-2.6.29-4.06,2.29-4.36,4.93S239.1,325.53,238.83,328.38Z"/><path class="cls-1" d="M271.06,328.1c0-5.11,0-10.22,0-15.32,0-1.95.28-4,2.84-4,7.94-.19,15.94-1.47,23.72,1.44,8.35,3.13,10.11,11.93,3.1,17.54-2.92,2.34-2.79,4-.8,6.63,2.27,3,4.24,6.16,6.41,9.2,2,2.77,1,3.9-2,4.24-8,.89-10.85-.69-14.59-7.85-1.06-2-1.66-5.88-3.76-5.39-3.09.7-.82,4.39-1.38,6.71-.48,2,1.33,5.14-1.62,5.72-3.56.7-7.49,1.29-11-.31-1.4-.64-1-2.73-1-4.26,0-4.77,0-9.53,0-14.3Zm12.88-6.57c2.1,1.77-2,6.22,2.74,6.28,3.54,0,5-3,4.9-6.49-.12-3.2-.94-6.73-4.56-6.63C282.45,314.81,285.62,319.32,283.94,321.53Z"/><path class="cls-1" d="M159.3,348.12c-5,1-9.25-1.48-13.34-4.83-2.7-2.22-3.93-4.73-1.62-7.33s5.78-2.66,8.63-.56c1.7,1.25,2.91,3.21,4.2,5,1.63,2.22,3.67,1.84,5.17.38s1.08-3.35-.61-4.87c-2.73-2.43-6.07-3.68-9.29-5.22-6.77-3.25-8.92-7-8.19-13.57.57-5.1,4.41-7.06,8.45-8.22,6.58-1.89,13.07-.7,19,2.51,2.38,1.28,4.43,3.69,2.39,6.77s-5.15,3.06-8.05,1.31c-1.4-.84-2.36-2.42-3.52-3.66-1.53-1.63-3.37-2.91-5.2-.85s-.73,4.33,1.32,5.6c3.14,2,6.6,3.4,9.75,5.35,7.22,4.48,9.37,8.41,7.8,13.64-1.51,5-8,8.84-14.87,8.73C160.81,348.25,160.3,348.19,159.3,348.12Z"/><path class="cls-1" d="M183.2,328c0-4.94.08-9.88,0-14.82,0-2.44.79-4.15,3.3-4.23,7.95-.23,15.93-1.45,23.79,1.24,5,1.7,7.58,5,8,10a11.33,11.33,0,0,1-7.31,11.2c-3,1.11-6.11,2.32-9.43,1.92-4-.48-5.28,1.37-4.9,5a5.1,5.1,0,0,1-.12,2.53c-.9,1.91,1.2,5.09-1.43,5.81-3.4.95-7.14,1.7-10.69.3-1.54-.6-1.19-2.32-1.2-3.63-.05-5.11,0-10.22,0-15.33Zm22.32-9.48c-.23-1.78-2.82-3.9-5.71-3.85-5.9.1-2.51,5.07-3.21,7.84-.55,2.12-.41,5,2.9,4.55C203.11,326.62,205.61,324.47,205.52,318.56Z"/><path class="cls-1" d="M328,308.66c3.92,0,7.84.08,11.75,0,2.65-.07,4.24.59,4.13,3.7-.1,2.7-.94,4.36-3.9,3.87-4.81-.8-5.71,1.29-5.39,5.76.48,6.62,0,13.3.13,19.95.06,3.89-1,6.3-5.51,5.62a22.35,22.35,0,0,0-4.09,0c-3.13.11-4.61-1-4.48-4.5.27-7.33,0-14.67.18-22,.1-3.36-.56-5.26-4.42-4.83-3,.33-5.19-1-5-4.22s2.66-3.31,5.32-3.16c3.73.22,7.49.06,11.24.06Z"/><path class="cls-1" d="M103.7,313.05q5.16,5.46,5.16,14.87v.54a1.91,1.91,0,0,1-1.89,1.88l-21.55.24a1.91,1.91,0,0,0-1.54,3,10,10,0,0,0,1,1.1,5.71,5.71,0,0,0,3.77,1.75c3.49.27,6.14-.6,8-2.59a1.89,1.89,0,0,1,1.91-.58l7.54,2.16a1.9,1.9,0,0,1,1.23,2.58,14.9,14.9,0,0,1-3,4.3,19.41,19.41,0,0,1-6.61,4.37,20.84,20.84,0,0,1-8,1.57,11.51,11.51,0,0,1-1.5-.07,19.14,19.14,0,0,1-9.53-3.36,21.71,21.71,0,0,1-7-7.85,22.3,22.3,0,0,1-2.58-10.62,14.72,14.72,0,0,1,.08-1.72,16.86,16.86,0,0,1,3-8.82,18.49,18.49,0,0,1,7.17-6.05,22.22,22.22,0,0,1,9.83-2.17Q98.55,307.59,103.7,313.05ZM86,321.52l6,0a1.9,1.9,0,0,0,1.28-3.32l0,0A5.85,5.85,0,0,0,90,316.86a7.23,7.23,0,0,0-5.13,1.26A1.9,1.9,0,0,0,86,321.52Z"/><path class="cls-1" d="M116.84,322.48h15.59a4.5,4.5,0,0,1,4.5,4.5v0a1.87,1.87,0,0,1-1.87,1.87H119.47a4.5,4.5,0,0,1-4.5-4.5v0A1.87,1.87,0,0,1,116.84,322.48Z"/><path class="cls-1" d="M96,128.16c4.95-15.61,15.69-26,31.9-30.31,3.91-1,9.59.51,11.4-2.67s.41-8.27.41-12.52h.17A68.21,68.21,0,0,1,140,74c.53-4.06-1.12-5-4.87-4.77A70.53,70.53,0,0,0,93.78,84.88a72.1,72.1,0,0,0-26.49,47.29,5.29,5.29,0,0,0,5.26,6H89.4a5.28,5.28,0,0,0,5.19-4.29A49.18,49.18,0,0,1,96,128.16Z"/><path class="cls-1" d="M72.42,169.3c10.79,25.64,34.84,42.57,63.11,44.13,3.84.21,5.53-1.16,4.28-7.33a32.64,32.64,0,0,1-.05-13.17c1.25-5.94-.12-7.44-3.79-7.45-11.79,0-21.49-5-29.38-13.37s-12.21-17.75-12.74-27.93H66.79A72.83,72.83,0,0,0,72.42,169.3Z"/><path class="cls-1" d="M43.39,87.27C62.6,54.58,91.17,35.8,128.79,30.86c4-.52,9.4.36,11.58-1.9,2.56-2.63.52-8,1-12.57,0-.12,0-.24,0-.36,0-3.11,0-6.63,0-10.14,0-2.36-.52-3.81-3.47-3.71A145.36,145.36,0,0,0,99.7,8.48,143.57,143.57,0,0,0,59.81,28.29a128.83,128.83,0,0,0-30,28.52A141.8,141.8,0,0,0,2.49,123.47c-.46,3.38-.8,6.73-1,10.07a4.33,4.33,0,0,0,4.33,4.58H25.31A4.35,4.35,0,0,0,29.64,134,100.38,100.38,0,0,1,43.39,87.27Z"/><path class="cls-1" d="M137.49,251.87a104.87,104.87,0,0,1-32.58-5.45c-26.59-8.79-46.58-26.14-61-49.41-6.59-10.64-10.7-22.95-12.69-35.78-.7-4.53-1.2-9-1.47-13.5A3.79,3.79,0,0,0,26,144.18H5.15a3.79,3.79,0,0,0-3.79,3.95c.93,20.2,6.45,39.51,15.92,58A132.46,132.46,0,0,0,63,256.69C85.49,271.47,110,279.62,137,279.89c3.31,0,4.51-.69,4.34-4.26-.32-6.46-.19-13,0-19.44C141.43,253.25,140.88,251.89,137.49,251.87Z"/><path class="cls-1" d="M75.42,93.89c13.16-18.46,31.48-29.25,54.25-31.57,11.07-1.13,11.11-.79,11-12.28,0-2.56-.12-5.12,0-7.67.19-3.39-1.27-4.62-4.59-4.33-17.61,1.53-34.39,5.55-49.72,14.9a104,104,0,0,0-49.84,81.17,3.76,3.76,0,0,0,3.77,4H55.8a3.77,3.77,0,0,0,3.76-3.43C60.72,120.81,65.94,107.16,75.42,93.89Z"/><path class="cls-1" d="M42.56,176.32A101.5,101.5,0,0,0,79.3,224.49c17.39,12.59,36.25,18.84,57.31,19.83,2.79.13,4.8,0,3.86-5.13a37.25,37.25,0,0,1,0-13.11c.76-4.42-.43-5.07-3.33-5.21-11.82-.58-23.28-2.29-34-8.21-13.57-7.52-25.07-17.23-32.47-30.78-6.46-11.82-10.2-23.6-11.17-35.24a2.68,2.68,0,0,0-2.68-2.46H39.53a3.06,3.06,0,0,0-3.06,3.23A100.91,100.91,0,0,0,42.56,176.32Z"/><text class="cls-3" transform="translate(111.92 420.64)"><tspan class="cls-4">C</tspan><tspan x="51.75" y="0">ARPI</tspan></text></g></g></svg>