<svg xmlns="http://www.w3.org/2000/svg" viewBox="0 0 922.4 441.27"><defs><style>.cls-1,.cls-5{fill:#3a309c;}.cls-1,.cls-2,.cls-3,.cls-4,.cls-5{stroke:#fff;stroke-miterlimit:10;stroke-width:2px;}.cls-2{fill:#fd6d14;}.cls-3,.cls-7{fill:#fff;}.cls-4{fill:#fb6715;}.cls-5,.cls-7{font-size:65.84px;font-family:SamsungSharpSansRegular-Regular, Samsung Sharp Sans Regular;}.cls-6{letter-spacing:-0.01em;}</style></defs><g id="Livello_2" data-name="Livello 2"><g id="Livello_1-2" data-name="Livello 1"><path class="cls-1" d="M347,276c0,3.66-1.37,4.35-4.47,4.25a111,111,0,0,0-14.82.05c-4.71.48-6.23-.77-6.21-5.69.2-43.18.16-86.37.19-129.56,0-12.29-.08-24.58,0-36.87,0-3.62-.9-4.74-4.8-4C299,107.48,286.15,117,279.42,134.19c-1.38,3.53-1.21,7.29-1.23,11a133.76,133.76,0,0,1-8.78,45.8c-10.09,27.34-27.56,48.63-51,65.26-19.35,13.74-41.07,21.59-64.69,24.22-4,.44-5.93-.11-5.53-4.92a164,164,0,0,0,.06-18.42c-.09-3.07.56-4.64,4.05-5,23.5-2.31,44-11.68,61.36-27.53a112.38,112.38,0,0,0,31.69-49.7c4.08-12.73,4-25.84,5.44-38.85a61.7,61.7,0,0,1,4.79-18c7.34-16.67,20.44-25.86,25.66-29.35,18.37-12.33,37.22-13.25,45.22-13.15a12.68,12.68,0,0,0,1.05,2.31c4.23,7.34,16.05,14.2,17.82,13S346.87,217.75,347,276Z"/><path class="cls-1" d="M319.9,35.61C284.52,37.82,255.81,52.8,234.3,81c-14.54,19.06-21.91,40.67-23.07,64.8-1.37,28.41-15.54,48.85-41.14,61.62-5.34,2.66-11.25,2.8-16.5,5.59-3.16,1.69-5.69.66-5.33-4.15a173.21,173.21,0,0,0,.09-18.93c-.1-2.78,1.06-3.93,3.45-4.79,22-8,31.56-21.6,32.53-45,.45-10.86,3.46-21.35,6.47-31.84,5.1-17.78,12.67-34.16,23.79-49,18.25-24.29,42.29-40,71.18-48.78C308.05,3.75,330.86,1.83,354,2.78c-.43,3.24-3.46,2.38-5.23,2.88C337,9,330.49,18.23,324.78,27.85,323.23,30.46,322.39,33.53,319.9,35.61Z"/><path class="cls-1" d="M321.74,42.5a26.64,26.64,0,0,0,1.18,24.77c-8.77.42-33.34,2.76-54.3,21.17-5.13,4.5-18.21,16.4-23.57,35.46a64.6,64.6,0,0,0-2.39,16.95c-.18,16.74-4.8,32.15-11.76,47.36-7.58,16.57-19.08,29.2-33.76,39.25a104,104,0,0,1-43.37,17c-3.86.59-6.15.26-5.49-4.61.45-3.35.09-6.82.09-10.23,0-7.89,0-7.89,7.42-9.35,36.43-7.18,63.25-39.66,63.47-76.66.11-18.64,6.55-35.39,16.35-50.89A105.17,105.17,0,0,1,258.23,67c19.67-16,40.13-20.53,49-22.39A125,125,0,0,1,321.74,42.5Z"/><path class="cls-1" d="M387.93,95.37c1-11.48,11.41-8.85,15.65-13.51,3.64-4,7.93-7.9,7.28-14.13-.27-2.66,3.83-2.55,3.05-5.31,2,1.22,1,3.15,1,4.71,0,34.45-.16,68.9-.2,103.35q-.06,53,.08,105.92c0,2.82-.42,3.93-3.59,3.79a150.58,150.58,0,0,0-17.39.16c-4.68.32-5.71-1.55-5.69-5.91.16-34.8.11-69.59.12-104.39q0-34.8,0-69.6C388.23,98.75,387.93,95.37,387.93,95.37Z"/><path class="cls-1" d="M354.56,94.73l26.19-.33q0,89.79.13,179.58c0,4.94-1.06,6.85-6.25,6.29a99.83,99.83,0,0,0-15.85-.06c-3.36.17-4.44-.81-4.43-4.34q.15-80.68.06-161.37C354.41,107.91,354.51,101.32,354.56,94.73Z"/><path class="cls-1" d="M414.74,35.06c-1.92-.38-2.86-1.32-3.78-3.34C405.43,19.66,397,10.44,384,6.13a1.47,1.47,0,0,0-.51,0c-2.95-1.71-1.6-3.32.61-3.38,9.52-.27,19.06-.16,28.6-.11,2.11,0,2.2,1.69,2.18,3.31Q414.81,20.51,414.74,35.06Z"/><circle class="cls-2" cx="367.32" cy="49.94" r="48.94"/><path class="cls-3" d="M330.49,56.26c.14-1.36.26-2.71.44-4.06a43,43,0,0,1,7.83-20.43,14.27,14.27,0,0,1,9.73-6.08,16.72,16.72,0,0,1,9.56,1.67,32.75,32.75,0,0,1,3.31,1.88,8.12,8.12,0,0,0,4.6,1.38c.84,0,1.68,0,2.52,0a8.43,8.43,0,0,0,5-1.53,20,20,0,0,1,9.18-3.46,13.87,13.87,0,0,1,12.33,5,33.13,33.13,0,0,1,5.7,9.76,48.33,48.33,0,0,1,3.42,20.25A31.2,31.2,0,0,1,402.69,70a6,6,0,0,1-6.54,4.24A8.48,8.48,0,0,1,392,72.12a55.93,55.93,0,0,1-8.49-8.36,6.78,6.78,0,0,0-5.73-2.64c-7.15.08-14.29.05-21.44,0a5.85,5.85,0,0,0-4.77,2.18A62.58,62.58,0,0,1,343,71.84c-.67.54-1.38,1-2.1,1.5A5.91,5.91,0,0,1,332,70.11a28.77,28.77,0,0,1-1.34-7.76,9.07,9.07,0,0,0-.14-.91Zm18-14.22c-1.57,0-3,0-4.49,0a.69.69,0,0,0-.77.47,5.18,5.18,0,0,0,0,4.12.81.81,0,0,0,.88.57c1.07,0,2.15,0,3.23,0h1c0,1.49,0,2.86,0,4.22a.94.94,0,0,0,.58,1,4.24,4.24,0,0,0,3.22.27c1.29-.35,1.32-.41,1.32-1.76V47.18c1.57,0,3,0,4.49,0a.93.93,0,0,0,.69-.31,4.16,4.16,0,0,0,.24-4c-.27-.56-.56-.91-1.29-.85-1,.08-2,0-2.94,0h-1c0-1.54,0-3,0-4.37a.68.68,0,0,0-.54-.78,6.58,6.58,0,0,0-3.95-.13.76.76,0,0,0-.67.9C348.51,39.09,348.48,40.52,348.48,42Zm47.06,1.59a4,4,0,1,0-4,4A4,4,0,0,0,395.54,43.63Zm-17.89-5.9a4,4,0,1,0,4-4A4,4,0,0,0,377.65,37.73Zm4,15a4,4,0,1,0-4-3.95A4,4,0,0,0,381.63,52.69Z"/><ellipse class="cls-4" cx="206.99" cy="361.07" rx="291.32" ry="0.7"/><path class="cls-4" d="M415.16,298.1H1v-1H415.22Z"/><path class="cls-2" d="M163.77,118.08q8.64,9.14,8.64,24.92v.9a3.18,3.18,0,0,1-3.15,3.14l-36.16.41a3.19,3.19,0,0,0-2.49,5.11,15.41,15.41,0,0,0,1.53,1.78,9.68,9.68,0,0,0,6.33,2.94q8.79.66,13.35-4.38A3.16,3.16,0,0,1,155,152l12.59,3.61a3.18,3.18,0,0,1,2,4.37,25,25,0,0,1-5,7.15,32.69,32.69,0,0,1-11.08,7.33,35.09,35.09,0,0,1-13.34,2.63,17.82,17.82,0,0,1-2.51-.13,31.81,31.81,0,0,1-16-5.63,36.13,36.13,0,0,1-11.65-13.15,37.38,37.38,0,0,1-4.32-17.79,26,26,0,0,1,.12-2.88A28.12,28.12,0,0,1,111,122.71a31,31,0,0,1,12-10.14,37,37,0,0,1,16.47-3.64Q155.13,108.93,163.77,118.08Zm-29.71,14.19,10.17.06a3.17,3.17,0,0,0,2.11-5.57l-.05,0a9.79,9.79,0,0,0-5.57-2.26,12.21,12.21,0,0,0-8.55,2.08A3.18,3.18,0,0,0,134.06,132.27Z"/><path class="cls-1" d="M244.85,309c11.87-.75,20,6.72,21,19.4.88,11.08-7.28,20.1-19,21s-20.6-7-21.39-19C224.61,318,232.13,309.76,244.85,309Zm-5,20.43a52.94,52.94,0,0,0,1,7.43c.62,2.34,2.1,4.5,4.87,4.49s4.22-2.16,4.8-4.56a35.48,35.48,0,0,0-.06-16.14c-.59-2.67-2.49-4.71-5.44-4.39-2.6.29-4.06,2.29-4.36,4.93S240.1,326.53,239.83,329.38Z"/><path class="cls-1" d="M272.06,329.1c0-5.11,0-10.22,0-15.32,0-1.95.27-4,2.83-4,7.94-.19,15.94-1.47,23.72,1.44,8.35,3.13,10.11,11.93,3.1,17.54-2.92,2.34-2.79,4-.8,6.63,2.27,3,4.24,6.16,6.42,9.2,2,2.77,1,3.9-2.06,4.24-8,.89-10.85-.69-14.59-7.85-1.06-2-1.66-5.88-3.76-5.39-3.08.7-.82,4.39-1.38,6.71-.48,2,1.34,5.14-1.62,5.72-3.56.7-7.49,1.29-11-.31-1.4-.64-1-2.73-1-4.26,0-4.77,0-9.53,0-14.3Zm12.88-6.57c2.1,1.77-2,6.22,2.74,6.28,3.54,0,5-3,4.9-6.49-.12-3.2-.94-6.73-4.56-6.63C283.45,315.81,286.62,320.32,284.94,322.53Z"/><path class="cls-1" d="M160.31,349.12c-5,1-9.25-1.48-13.35-4.83-2.7-2.22-3.93-4.73-1.61-7.33s5.78-2.66,8.62-.56c1.7,1.25,2.91,3.21,4.2,5,1.63,2.22,3.67,1.84,5.18.38s1.07-3.35-.62-4.87c-2.72-2.43-6.07-3.68-9.28-5.22-6.78-3.25-8.93-7-8.2-13.57.57-5.1,4.41-7.06,8.46-8.22,6.57-1.89,13.07-.7,19,2.51,2.37,1.28,4.42,3.69,2.39,6.77s-5.16,3.06-8.06,1.31c-1.4-.84-2.36-2.42-3.52-3.66-1.52-1.63-3.37-2.91-5.19-.85s-.73,4.33,1.31,5.6c3.14,2,6.6,3.4,9.75,5.35,7.22,4.48,9.37,8.41,7.8,13.64-1.5,5-8,8.84-14.87,8.73C161.81,349.25,161.31,349.19,160.31,349.12Z"/><path class="cls-1" d="M184.21,329c0-4.94.07-9.88,0-14.82-.06-2.44.79-4.15,3.29-4.23,7.95-.23,15.93-1.45,23.79,1.24,5,1.7,7.58,5,8,10a11.33,11.33,0,0,1-7.31,11.2c-3,1.11-6.11,2.32-9.43,1.92-4-.48-5.28,1.37-4.9,5a5.1,5.1,0,0,1-.12,2.53c-.9,1.91,1.2,5.09-1.42,5.81-3.41.95-7.15,1.7-10.7.3-1.54-.6-1.19-2.32-1.2-3.63-.05-5.11,0-10.22,0-15.33Zm22.31-9.48c-.22-1.78-2.82-3.9-5.71-3.85-5.9.1-2.51,5.07-3.21,7.84-.54,2.12-.41,5,2.9,4.55C204.11,327.62,206.61,325.47,206.52,319.56Z"/><path class="cls-1" d="M329,309.66c3.91,0,7.83.08,11.75,0,2.64-.07,4.23.59,4.12,3.7-.1,2.7-.94,4.36-3.9,3.87-4.81-.8-5.71,1.29-5.39,5.76.48,6.62,0,13.3.13,19.95.06,3.89-1,6.3-5.51,5.62a22.35,22.35,0,0,0-4.09,0c-3.13.11-4.61-1-4.48-4.5.27-7.33,0-14.67.19-22,.1-3.36-.57-5.26-4.43-4.83-3,.33-5.19-1-5-4.22s2.66-3.31,5.32-3.16c3.74.22,7.49.06,11.24.06Z"/><path class="cls-2" d="M104.7,314.05q5.16,5.46,5.16,14.87v.54a1.91,1.91,0,0,1-1.89,1.88l-21.55.24a1.91,1.91,0,0,0-1.54,3,10,10,0,0,0,1,1.1,5.71,5.71,0,0,0,3.77,1.75c3.49.27,6.14-.6,8-2.59a1.9,1.9,0,0,1,1.91-.58l7.54,2.16a1.89,1.89,0,0,1,1.23,2.58,14.86,14.86,0,0,1-3,4.3,19.45,19.45,0,0,1-6.62,4.37,20.84,20.84,0,0,1-8,1.57,11.24,11.24,0,0,1-1.49-.07,19.07,19.07,0,0,1-9.53-3.36,21.64,21.64,0,0,1-7-7.85,22.29,22.29,0,0,1-2.57-10.62,15.16,15.16,0,0,1,.07-1.72,16.86,16.86,0,0,1,3-8.82,18.56,18.56,0,0,1,7.17-6.05,22.22,22.22,0,0,1,9.83-2.17Q99.55,308.59,104.7,314.05ZM87,322.52l6,0a1.9,1.9,0,0,0,1.28-3.32l0,0A5.91,5.91,0,0,0,91,317.86a7.23,7.23,0,0,0-5.13,1.26A1.91,1.91,0,0,0,87,322.52Z"/><path class="cls-2" d="M117.85,323.48h15.59a4.5,4.5,0,0,1,4.5,4.5v0a1.87,1.87,0,0,1-1.87,1.87H120.48a4.5,4.5,0,0,1-4.5-4.5v0A1.87,1.87,0,0,1,117.85,323.48Z"/><path class="cls-1" d="M97,129.16c5-15.61,15.7-26,31.9-30.31,3.91-1,9.59.51,11.4-2.67s.41-8.27.41-12.52h.17A68.21,68.21,0,0,1,141,75c.53-4.06-1.12-5-4.87-4.77A70.53,70.53,0,0,0,94.78,85.88a72.1,72.1,0,0,0-26.49,47.29,5.29,5.29,0,0,0,5.26,6H90.4a5.27,5.27,0,0,0,5.19-4.29A49.18,49.18,0,0,1,97,129.16Z"/><path class="cls-1" d="M73.42,170.3c10.79,25.64,34.84,42.57,63.12,44.13,3.83.21,5.52-1.16,4.27-7.33a32.64,32.64,0,0,1-.05-13.17c1.25-5.94-.11-7.44-3.79-7.45-11.79,0-21.49-5-29.38-13.37s-12.21-17.75-12.74-27.93H67.79A72.83,72.83,0,0,0,73.42,170.3Z"/><path class="cls-1" d="M44.39,88.27C63.6,55.58,92.17,36.8,129.79,31.86c4-.52,9.4.36,11.58-1.9,2.56-2.63.52-8,1-12.57,0-.12,0-.24,0-.36,0-3.11,0-6.63,0-10.14,0-2.36-.52-3.81-3.47-3.71a145.36,145.36,0,0,0-38.18,6.3A143.71,143.71,0,0,0,60.81,29.29a128.83,128.83,0,0,0-30,28.52A141.8,141.8,0,0,0,3.49,124.47c-.46,3.38-.79,6.73-1,10.07a4.33,4.33,0,0,0,4.34,4.58H26.31A4.36,4.36,0,0,0,30.65,135,100.25,100.25,0,0,1,44.39,88.27Z"/><path class="cls-1" d="M138.49,252.87a104.92,104.92,0,0,1-32.58-5.45c-26.59-8.79-46.58-26.14-61-49.41-6.6-10.64-10.71-22.95-12.69-35.78q-1.06-6.79-1.48-13.5A3.78,3.78,0,0,0,27,145.18H6.15a3.79,3.79,0,0,0-3.79,3.95c.93,20.2,6.45,39.51,15.92,58A132.46,132.46,0,0,0,64,257.69c22.47,14.78,46.94,22.93,74,23.2,3.31,0,4.51-.69,4.34-4.26-.32-6.46-.19-13,0-19.44C142.43,254.25,141.88,252.89,138.49,252.87Z"/><path class="cls-1" d="M76.42,94.89c13.17-18.46,31.49-29.25,54.25-31.57,11.07-1.13,11.11-.79,11-12.28,0-2.56-.12-5.12,0-7.67.2-3.39-1.27-4.62-4.59-4.33-17.61,1.53-34.39,5.55-49.72,14.9a104,104,0,0,0-49.84,81.17,3.77,3.77,0,0,0,3.77,4H56.81a3.76,3.76,0,0,0,3.75-3.43C61.72,121.81,66.94,108.16,76.42,94.89Z"/><path class="cls-1" d="M43.56,177.32A101.56,101.56,0,0,0,80.3,225.49c17.39,12.59,36.26,18.84,57.32,19.83,2.78.13,4.79,0,3.85-5.13a37.49,37.49,0,0,1,0-13.11c.77-4.42-.42-5.07-3.32-5.21-11.83-.58-23.29-2.29-34-8.21-13.56-7.52-25.07-17.23-32.47-30.78-6.46-11.82-10.2-23.6-11.16-35.24a2.7,2.7,0,0,0-2.69-2.46H40.53a3,3,0,0,0-3.05,3.23A100.56,100.56,0,0,0,43.56,177.32Z"/><text class="cls-5" transform="translate(112.92 421.64)"><tspan class="cls-6">C</tspan><tspan x="51.75" y="0">ARPI</tspan></text><text class="cls-7" transform="translate(729.88 416.86)"><tspan class="cls-6">C</tspan><tspan x="51.75" y="0">ARPI</tspan></text></g></g></svg>