<svg version="1" xmlns="http://www.w3.org/2000/svg" width="552" height="552" viewBox="0 0 414.000000 414.000000"><path d="M356.6 67.7c-.4.4-7.1.8-14.9.9-25.6.3-42.6 2.8-62.3 9.3-35.4 11.6-63.7 35.8-80.1 68.6-9.4 18.6-16.3 43.3-17.7 63.3-.6 7.7-3.5 17.7-6.7 22.9-3.4 5.5-11.8 12.1-20.5 16.3l-8.4 4 .1 13c0 9.6.3 13.2 1.3 13.6 1.5.6 17.9-4.7 23.8-7.7 20.8-10.6 35.2-31.7 37.3-54.4.6-6.9 1.4-14.6 2-19.5 1.4-10.6 7-27 12.9-37.4 18.7-33.1 51.3-54.5 88.6-58.2l6.1-.6-.7 2.9c-.4 1.5-.9 3.1-1.3 3.4-.3.3-4.6 1.3-9.4 2.3-35.6 6.8-61.9 25.8-78.2 56.7-4.9 9.5-8.8 19.9-10 27-.4 2.4-.9 5.2-1.1 6.1-.1.9-.4 5.2-.5 9.5-.7 23.3-11.6 46-29.2 60.3-7.5 6.2-21.7 13.2-31.2 15.5-11.1 2.7-10.6 2-10.3 14.3l.3 10.7 3.5.1c10 .2 35.3-9.5 46.5-17.8 17.5-13 29.1-28.4 36.5-48.5 5.2-14.4 6.5-20.5 7.5-36.8.7-11.7 1.8-16.8 5.2-24.9 10.2-24.4 35.2-42.9 64.8-47.9l8-1.4 1.9 3.6c2.1 4 2 4.5-.9 4.7-2.1.1-11.9 1.4-14.5 1.9-23.7 4.5-47.2 25-54.4 47.5-1.5 5-2.3 10.1-3.1 20.5-.5 7.1-1.2 13.2-2.1 19.5-1 6.6-6.5 21.5-11.1 30-11 20.5-30.3 38.8-50.6 48-8.4 3.8-21.8 7.7-29.4 8.5-3.2.4-6.4 1.2-7.1 1.8-.9.7-1.2 4.4-1 14.1l.3 13.1 6.1-.2c16.8-.7 41.2-9.2 58.9-20.7 30.6-20 50.8-47.5 59.8-81.6 3.3-12.5 3.6-14.6 4.3-27.5.6-12.1 2.2-18.6 6.1-24.9 3.7-5.9 11.5-13.1 17.6-16 7-3.4 17.6-6.1 18.9-4.8.7.7 1.1 30 1 87 0 47.3.4 86.5.8 87.2 1.1 1.7 22.7 2 24.1.4 1-1.3.6-182.4-.4-184.1-.4-.6 1.4-.3 3.8.6l4.5 1.6v90.7c0 85.4.1 90.8 1.8 91.6.9.4 6.4.7 12.1.7 8.8-.1 10.6-.4 11.7-2 1.1-1.5 1.3-17.2 1.1-90.8-.3-91.6-.3-91.7 3.3-91.7.5 0 1.5-.3 2.3-.6 1.3-.4 1.4 11.3 1.4 91.2 0 83.4.1 91.8 1.6 92.9 1.7 1.2 23.2 1.3 24.4.1.4-.4.9-50.1 1.1-110.4.6-160.3.6-164.9-1.1-165.9-.6-.4-8.8-.8-18.2-.9-9.3-.1-21.3-.5-26.6-.8-5.3-.3-9.9-.2-10.3.1zM120.8 70.6C74.1 77.4 34 106.2 14 147.5 7.1 161.9 1.9 180.2.5 195.6c-.9 9.6-.3 10.1 14.5 9.9 6.1-.1 11.5-.6 12.1-1.2.5-.5 1.2-2.3 1.3-3.9 1.5-12.4 2.1-15.9 4.3-23.4 7.9-27.2 28.2-52 54.4-66.4 11.7-6.4 33.7-12.6 44.8-12.6 8 0 8.6-1 8.5-14.3-.1-6.4-.4-12.3-.7-13.1-.7-1.9-5.7-1.9-18.9 0z"/><path d="M121.5 106.7c-28.3 4.8-52.6 20.4-68.8 44.2-8.5 12.3-14.7 28.4-16.7 43.2-1.5 10.9-.9 11.6 11.4 11.4 4.8-.1 9.1-.6 9.7-1.2 1-1 1.2-2 2.3-9.6.9-5.8 5.2-17.3 9.1-24.2 13.5-24.2 34.7-38.6 60.4-41 6.8-.6 10-1.8 10.2-3.8.6-6.5.3-18.5-.4-19.5-1.2-1.5-6-1.4-17.2.5z"/><path d="M123 137.6C96.5 143 75.3 162.9 68.1 189c-4.1 14.6-3.1 16.2 10 16.5 13.2.2 14.2-.3 16.3-7.6 5.4-19.4 19.7-31.9 38.3-33.3 5.8-.4 6.2-1.5 6.2-15.2 0-6.8-.3-12.5-.7-12.5-3.6-.7-9.8-.4-15.2.7z"/><path d="M124.8 176.9c-13.4 5.2-20.4 14.2-21.2 27.2-.9 16.9 8.9 32.3 23.9 37.4 14.1 4.7 31.7-1.2 38.5-12.8 1.2-2.1 1.9-4.4 1.7-5.1-.5-1.2-12.8-5.6-15.6-5.6-.5 0-2.7 1.1-4.7 2.5-5.1 3.5-13.2 3.5-16.8.1-2.7-2.5-3.3-5-1.5-6.2.6-.4 9.6-.8 19.9-.9 10.3-.1 19.3-.6 20-1 .9-.6 1.1-2.7.7-8.1-.9-12.6-6.3-21.1-16.5-26.1-4.8-2.4-7.1-2.8-14.7-3-6.7-.1-10.2.3-13.7 1.6zm18.7 16.1c2.4 2.7 1.3 5-2.7 5.1-1.8 0-4.3.2-5.4.3-3.1.4-6.4-1.1-6.4-2.8 0-4.6 10.9-6.6 14.5-2.6zM1 212.5c-.8.9-1 3.8-.6 8.4 4.9 57.2 46.2 106.5 101.9 121.5 11.7 3.2 17 4 28.2 4l9 .1.5-12.4c.3-7.5.1-12.9-.5-13.7-.6-.8-4-1.5-8.5-1.8-22.5-1.4-43.7-9.7-61.5-23.9-11.1-8.9-24-24.8-30.3-37.2-3.5-7.1-8.1-21.4-8.9-28.2-.3-2.6-.7-5.5-.9-6.3-.1-.8-.3-3.2-.3-5.2-.2-6.2-1.6-6.8-15.1-6.7-8.8 0-12.2.4-13 1.4z"/><path d="M36 212.6c-1.4 1.6-.8 7.9 1.7 18.8 8.3 36.8 38.7 67.8 75.4 76.9 5.7 1.5 8.8 1.9 20.5 3.2 5.3.5 5.7-.3 5.7-11.9 0-5.9-.2-10.9-.4-11.1-.2-.2-3.4-.6-7.1-.9-21.2-2-36.8-9.4-51.7-24.6-10.3-10.6-20.2-32-21.2-46-.2-1.9-.7-4-1.1-4.7-1.4-1.7-20.3-1.6-21.8.3z"/><path d="M65.8 211.6c-1.4 1.4 2.3 18.3 5.7 26 7.5 17.1 21.8 30.9 39.1 37.8 9.9 4 24.6 6.5 26.8 4.7 1.4-1.1 1.7-25.3.4-26.6-.3-.3-3-.9-5.9-1.2-10.8-1.1-19.1-5.4-26.7-13.8-6-6.5-10.9-15.9-11.8-22.5l-.6-4.7-13.3-.1c-7.3-.1-13.5.1-13.7.4z"/></svg>